<svg xmlns="http://www.w3.org/2000/svg" xmlns:xlink="http://www.w3.org/1999/xlink" zoomAndPan="magnify" preserveAspectRatio="xMidYMid meet" version="1.0" viewBox="6.41 33 362.25 309.55"><defs><clipPath id="e6f5253b80"><path d="M 215 120 L 368.664062 120 L 368.664062 133 L 215 133 Z M 215 120 " clip-rule="nonzero"/></clipPath><clipPath id="6e57f042b7"><path d="M 277 160 L 368.664062 160 L 368.664062 172 L 277 172 Z M 277 160 " clip-rule="nonzero"/></clipPath><clipPath id="21ba1f3b10"><path d="M 328 200 L 368.664062 200 L 368.664062 212 L 328 212 Z M 328 200 " clip-rule="nonzero"/></clipPath><clipPath id="4837a7cc95"><path d="M 6.414062 33 L 122 33 L 122 153 L 6.414062 153 Z M 6.414062 33 " clip-rule="nonzero"/></clipPath></defs><path fill="#152039" d="M 65.210938 186.238281 C 66.714844 188.789062 69.359375 190.3125 72.289062 190.3125 L 118.789062 190.3125 L 103.875 287.84375 C 103.269531 291.789062 105.414062 295.535156 109.101562 296.953125 C 110.070312 297.320312 111.0625 297.5 112.050781 297.5 C 114.734375 297.5 117.316406 296.15625 118.886719 293.773438 L 207.074219 159.539062 C 208.78125 156.941406 208.921875 153.621094 207.4375 150.878906 C 205.992188 148.195312 203.226562 146.535156 200.21875 146.535156 L 144.820312 146.535156 L 152.246094 53.359375 C 152.5625 49.378906 150.148438 45.808594 146.378906 44.667969 C 142.65625 43.53125 138.746094 45.15625 136.839844 48.574219 L 65.117188 177.851562 C 63.664062 180.457031 63.710938 183.671875 65.222656 186.238281 Z M 139.808594 66.570312 L 133.257812 148.824219 C 133.070312 151.171875 133.871094 153.5 135.457031 155.21875 C 137.003906 156.902344 139.203125 157.867188 141.476562 157.867188 L 194.601562 157.867188 L 117.207031 275.675781 L 130.515625 188.613281 C 130.890625 186.171875 130.179688 183.703125 128.582031 181.839844 C 127.019531 180.019531 124.75 178.976562 122.371094 178.976562 L 77.4375 178.976562 Z M 139.808594 66.570312 " fill-opacity="1" fill-rule="nonzero"/><path fill="#152039" d="M 198.550781 98.230469 L 266.5625 98.230469 C 269.699219 98.230469 272.230469 95.691406 272.230469 92.5625 C 272.230469 89.433594 269.699219 86.894531 266.5625 86.894531 L 198.550781 86.894531 C 195.417969 86.894531 192.882812 89.433594 192.882812 92.5625 C 192.882812 95.691406 195.417969 98.230469 198.550781 98.230469 Z M 198.550781 98.230469 " fill-opacity="1" fill-rule="nonzero"/><path fill="#152039" d="M 289.234375 98.230469 L 306.238281 98.230469 C 309.371094 98.230469 311.90625 95.691406 311.90625 92.5625 C 311.90625 89.433594 309.371094 86.894531 306.238281 86.894531 L 289.234375 86.894531 C 286.101562 86.894531 283.566406 89.433594 283.566406 92.5625 C 283.566406 95.691406 286.101562 98.230469 289.234375 98.230469 Z M 289.234375 98.230469 " fill-opacity="1" fill-rule="nonzero"/><g clip-path="url(#e6f5253b80)"><path fill="#152039" d="M 215.554688 126.566406 C 215.554688 129.695312 218.085938 132.234375 221.222656 132.234375 L 362.914062 132.234375 C 366.050781 132.234375 368.582031 129.695312 368.582031 126.566406 C 368.582031 123.441406 366.050781 120.902344 362.914062 120.902344 L 221.222656 120.902344 C 218.085938 120.902344 215.554688 123.441406 215.554688 126.566406 Z M 215.554688 126.566406 " fill-opacity="1" fill-rule="nonzero"/></g><path fill="#152039" d="M 260.894531 171.910156 C 264.03125 171.910156 266.5625 169.371094 266.5625 166.242188 C 266.5625 163.113281 264.03125 160.574219 260.894531 160.574219 L 243.890625 160.574219 C 240.757812 160.574219 238.226562 163.113281 238.226562 166.242188 C 238.226562 169.371094 240.757812 171.910156 243.890625 171.910156 Z M 260.894531 171.910156 " fill-opacity="1" fill-rule="nonzero"/><g clip-path="url(#6e57f042b7)"><path fill="#152039" d="M 362.914062 160.574219 L 283.566406 160.574219 C 280.433594 160.574219 277.898438 163.113281 277.898438 166.242188 C 277.898438 169.371094 280.433594 171.910156 283.566406 171.910156 L 362.914062 171.910156 C 366.050781 171.910156 368.582031 169.371094 368.582031 166.242188 C 368.582031 163.113281 366.050781 160.574219 362.914062 160.574219 Z M 362.914062 160.574219 " fill-opacity="1" fill-rule="nonzero"/></g><g clip-path="url(#21ba1f3b10)"><path fill="#152039" d="M 362.914062 200.25 L 334.574219 200.25 C 331.441406 200.25 328.910156 202.789062 328.910156 205.917969 C 328.910156 209.046875 331.441406 211.585938 334.574219 211.585938 L 362.914062 211.585938 C 366.050781 211.585938 368.582031 209.046875 368.582031 205.917969 C 368.582031 202.789062 366.050781 200.25 362.914062 200.25 Z M 362.914062 200.25 " fill-opacity="1" fill-rule="nonzero"/></g><path fill="#152039" d="M 300.570312 205.917969 C 300.570312 202.789062 298.035156 200.25 294.902344 200.25 L 238.226562 200.25 C 235.089844 200.25 232.558594 202.789062 232.558594 205.917969 C 232.558594 209.046875 235.089844 211.585938 238.226562 211.585938 L 294.902344 211.585938 C 298.035156 211.585938 300.570312 209.046875 300.570312 205.917969 Z M 300.570312 205.917969 " fill-opacity="1" fill-rule="nonzero"/><path fill="#152039" d="M 238.226562 239.921875 C 235.089844 239.921875 232.558594 242.460938 232.558594 245.589844 C 232.558594 248.71875 235.089844 251.257812 238.226562 251.257812 L 277.898438 251.257812 C 281.03125 251.257812 283.566406 248.71875 283.566406 245.589844 C 283.566406 242.460938 281.03125 239.921875 277.898438 239.921875 Z M 238.226562 239.921875 " fill-opacity="1" fill-rule="nonzero"/><path fill="#152039" d="M 300.570312 251.257812 L 323.242188 251.257812 C 326.375 251.257812 328.910156 248.71875 328.910156 245.589844 C 328.910156 242.460938 326.375 239.921875 323.242188 239.921875 L 300.570312 239.921875 C 297.433594 239.921875 294.902344 242.460938 294.902344 245.589844 C 294.902344 248.71875 297.433594 251.257812 300.570312 251.257812 Z M 300.570312 251.257812 " fill-opacity="1" fill-rule="nonzero"/><g clip-path="url(#4837a7cc95)"><path fill="#152039" d="M 17.335938 151.484375 L 29.0625 152.46875 C 29.386719 152.496094 29.703125 152.507812 30.027344 152.507812 C 35.582031 152.507812 40.402344 148.429688 41.21875 142.851562 C 43.554688 126.855469 53.605469 76.398438 87.402344 71.648438 C 87.898438 72.828125 88.789062 73.835938 89.957031 74.460938 C 91.792969 75.445312 94.042969 75.335938 95.773438 74.175781 L 118.824219 58.808594 C 120.398438 57.757812 121.34375 55.988281 121.34375 54.09375 C 121.34375 52.203125 120.398438 50.433594 118.824219 49.378906 L 95.773438 34.007812 C 94.039062 32.847656 91.792969 32.738281 89.957031 33.726562 C 88.613281 34.445312 87.640625 35.65625 87.207031 37.074219 C 25.3125 41.179688 10.230469 115.476562 7.042969 138.703125 C 6.628906 141.753906 7.496094 144.875 9.417969 147.277344 C 11.355469 149.691406 14.246094 151.226562 17.335938 151.488281 Z M 92.632812 48.230469 C 93.679688 48.230469 94.660156 47.945312 95.503906 47.445312 L 105.46875 54.089844 L 95.503906 60.726562 C 94.667969 60.234375 93.6875 59.945312 92.632812 59.945312 C 45.523438 59.945312 32.78125 122.148438 30.015625 141.167969 L 18.273438 140.226562 C 21.234375 118.644531 35.355469 48.222656 92.632812 48.222656 Z M 92.632812 48.230469 " fill-opacity="1" fill-rule="nonzero"/></g><path fill="#152039" d="M 214.039062 224.121094 L 202.308594 223.136719 C 196.300781 222.589844 191.007812 226.863281 190.152344 232.757812 C 187.820312 248.746094 177.785156 299.214844 143.96875 303.957031 C 143.472656 302.777344 142.582031 301.769531 141.414062 301.144531 C 139.578125 300.160156 137.328125 300.273438 135.597656 301.429688 L 112.546875 316.800781 C 110.972656 317.855469 110.027344 319.621094 110.027344 321.515625 C 110.027344 323.410156 110.972656 325.175781 112.546875 326.230469 L 135.597656 341.597656 C 136.546875 342.230469 137.640625 342.546875 138.746094 342.546875 C 139.664062 342.546875 140.582031 342.328125 141.421875 341.878906 C 142.761719 341.160156 143.738281 339.945312 144.167969 338.53125 C 206.070312 334.421875 221.148438 260.121094 224.332031 236.90625 C 224.753906 233.859375 223.898438 230.730469 221.96875 228.328125 C 220.035156 225.90625 217.144531 224.371094 214.050781 224.109375 Z M 138.738281 327.375 C 137.683594 327.375 136.710938 327.660156 135.867188 328.15625 L 125.902344 321.519531 L 135.867188 314.878906 C 136.703125 315.371094 137.691406 315.660156 138.738281 315.660156 C 185.867188 315.660156 198.597656 253.464844 201.363281 234.4375 L 213.101562 235.378906 C 210.136719 256.960938 196.015625 327.382812 138.738281 327.382812 Z M 138.738281 327.375 " fill-opacity="1" fill-rule="nonzero"/><path fill="#152039" d="M 37.371094 312.953125 C 37.972656 313.160156 38.597656 313.257812 39.207031 313.257812 C 40.925781 313.257812 42.589844 312.476562 43.679688 311.070312 L 81.910156 261.917969 C 84.828125 258.171875 85.335938 253.203125 83.257812 248.941406 C 81.171875 244.679688 76.933594 242.027344 72.183594 242.027344 L 64.835938 242.027344 L 64.835938 201.109375 C 64.835938 198.691406 63.300781 196.535156 61.007812 195.75 C 58.714844 194.949219 56.171875 195.714844 54.699219 197.628906 L 16.476562 246.78125 C 13.554688 250.527344 13.046875 255.496094 15.125 259.761719 C 17.210938 264.023438 21.449219 266.675781 26.199219 266.675781 L 33.546875 266.675781 L 33.546875 307.589844 C 33.546875 310.011719 35.082031 312.164062 37.378906 312.953125 Z M 26.195312 255.339844 C 26.042969 255.339844 25.578125 255.339844 25.304688 254.785156 C 25.039062 254.234375 25.320312 253.867188 25.417969 253.742188 L 53.507812 217.625 L 53.507812 247.691406 C 53.507812 250.820312 56.042969 253.359375 59.175781 253.359375 L 72.1875 253.359375 C 72.339844 253.359375 72.804688 253.359375 73.078125 253.917969 C 73.34375 254.464844 73.0625 254.835938 72.964844 254.960938 L 44.875 291.074219 L 44.875 261.007812 C 44.875 257.878906 42.34375 255.339844 39.207031 255.339844 Z M 26.195312 255.339844 " fill-opacity="1" fill-rule="nonzero"/></svg>